<?xml version="1.0" encoding="utf-8"?>
<!-- Generator: Adobe Illustrator 26.0.2, SVG Export Plug-In . SVG Version: 6.00 Build 0)  -->
<svg version="1.1" id="Layer_1" xmlns="http://www.w3.org/2000/svg" xmlns:xlink="http://www.w3.org/1999/xlink" x="0px" y="0px"
	 viewBox="0 0 792 612" style="enable-background:new 0 0 792 612;" xml:space="preserve">
<style type="text/css">
	.st0{fill:none;}
	.st1{fill:#14153F;}
	.st2{fill:none;stroke:#14153F;stroke-width:2;stroke-miterlimit:10;}
	.st3{fill:url(#_x31_0_dpi_20_x25_);stroke:#14153F;stroke-width:2;stroke-miterlimit:10;}
	.st4{fill:url(#_x31_0_dpi_20_x25_);}
	.st5{fill:none;stroke:#14153F;stroke-width:2;stroke-linecap:round;stroke-miterlimit:10;}
	.st6{clip-path:url(#SVGID_00000061461581773845871750000006450996212212005251_);}
	.st7{clip-path:url(#SVGID_00000086693043066958000950000003863712737306370452_);}
</style>
<pattern  width="28.8" height="28.8" patternUnits="userSpaceOnUse" id="_x31_0_dpi_20_x25_" viewBox="1.44 -30.24 28.8 28.8" style="overflow:visible;">
	<g>
		<rect x="1.44" y="-30.24" class="st0" width="28.8" height="28.8"/>
		<g>
			<path class="st1" d="M30.24,0c0.8,0,1.44-0.64,1.44-1.44c0-0.79-0.64-1.44-1.44-1.44c-0.8,0-1.44,0.64-1.44,1.44
				C28.8-0.64,29.44,0,30.24,0z"/>
			<path class="st1" d="M15.84,0c0.8,0,1.44-0.64,1.44-1.44c0-0.79-0.65-1.44-1.44-1.44c-0.8,0-1.44,0.64-1.44,1.44
				C14.4-0.64,15.04,0,15.84,0z"/>
			<path class="st1" d="M30.24-14.4c0.8,0,1.44-0.65,1.44-1.44c0-0.8-0.64-1.44-1.44-1.44c-0.8,0-1.44,0.64-1.44,1.44
				C28.8-15.04,29.44-14.4,30.24-14.4z"/>
			<path class="st1" d="M15.84-14.4c0.8,0,1.44-0.65,1.44-1.44c0-0.8-0.65-1.44-1.44-1.44c-0.8,0-1.44,0.64-1.44,1.44
				C14.4-15.04,15.04-14.4,15.84-14.4z"/>
			<path class="st1" d="M8.64-7.2c0.79,0,1.44-0.64,1.44-1.44c0-0.8-0.65-1.44-1.44-1.44c-0.8,0-1.44,0.64-1.44,1.44
				C7.2-7.84,7.84-7.2,8.64-7.2z"/>
			<path class="st1" d="M23.04-7.2c0.79,0,1.44-0.64,1.44-1.44c0-0.8-0.65-1.44-1.44-1.44c-0.8,0-1.44,0.64-1.44,1.44
				C21.6-7.84,22.24-7.2,23.04-7.2z"/>
			<path class="st1" d="M8.64-21.6c0.79,0,1.44-0.64,1.44-1.44c0-0.8-0.65-1.44-1.44-1.44c-0.8,0-1.44,0.64-1.44,1.44
				C7.2-22.24,7.84-21.6,8.64-21.6z"/>
			<path class="st1" d="M23.04-21.6c0.79,0,1.44-0.64,1.44-1.44c0-0.8-0.65-1.44-1.44-1.44c-0.8,0-1.44,0.64-1.44,1.44
				C21.6-22.24,22.24-21.6,23.04-21.6z"/>
		</g>
		<g>
			<path class="st1" d="M1.44,0c0.79,0,1.44-0.64,1.44-1.44c0-0.79-0.64-1.44-1.44-1.44C0.64-2.88,0-2.23,0-1.44
				C0-0.64,0.64,0,1.44,0z"/>
			<path class="st1" d="M1.44-14.4c0.79,0,1.44-0.65,1.44-1.44c0-0.8-0.64-1.44-1.44-1.44c-0.8,0-1.44,0.64-1.44,1.44
				C0-15.04,0.64-14.4,1.44-14.4z"/>
		</g>
		<g>
			<path class="st1" d="M30.24-28.8c0.8,0,1.44-0.64,1.44-1.44c0-0.79-0.64-1.44-1.44-1.44c-0.8,0-1.44,0.64-1.44,1.44
				C28.8-29.45,29.44-28.8,30.24-28.8z"/>
			<path class="st1" d="M15.84-28.8c0.8,0,1.44-0.64,1.44-1.44c0-0.79-0.65-1.44-1.44-1.44c-0.8,0-1.44,0.64-1.44,1.44
				C14.4-29.45,15.04-28.8,15.84-28.8z"/>
		</g>
		<g>
			<path class="st1" d="M1.44-28.8c0.79,0,1.44-0.64,1.44-1.44c0-0.79-0.64-1.44-1.44-1.44c-0.8,0-1.44,0.64-1.44,1.44
				C0-29.45,0.64-28.8,1.44-28.8z"/>
		</g>
	</g>
</pattern>
<path class="st2" d="M698.45,413.16c16.31,0.07,32.62,0.13,48.93,0.2c0-14.22,0-28.43,0-42.65c15.02,0,30.03,0,45.05,0"/>
<path class="st2" d="M732.28,413.3"/>
<path class="st2" d="M707.29,413.2"/>
<path class="st3" d="M698.46,413.16c-1-4.82-3.52-13.14-10.55-20.01c-0.85-0.82-2.91-2.73-5.91-4.65
	c-5.92-3.77-13.02-5.96-20.64-5.96c-20.74,0-37.55,16.22-37.55,36.24c0.19,32.73,0.38,65.45,0.57,98.18l27.42-0.03v-49.12h47.24
	C698.85,449.59,698.65,431.38,698.46,413.16z M635.32,444.39c-3.03,0-5.49-2.46-5.49-5.5c0-3.03,2.46-5.49,5.49-5.49
	c3.04,0,5.49,2.46,5.49,5.49C640.81,441.93,638.36,444.39,635.32,444.39z"/>
<g>
	<path class="st2" d="M562.04,490.26v-13.03v-3.01v-5.97c0-5.99,0.65-11.4,1.93-16.13c3.59-13.47,12.2-21.39,25.03-21.39
		c9.03,0,15.96,3.93,20.54,10.95v0.01c3.34,5.12,5.42,11.88,6.13,19.97c0.2,2.11,0.29,4.31,0.29,6.59v20.36v28.9 M562.04,517.51
		v-9.54"/>
	<polyline class="st2" points="589,430.73 589,448.66 589,462.97 589,505.17 589,516.56 589,517.51 	"/>
	<line class="st2" x1="608.73" y1="442.51" x2="588.77" y2="463.21"/>
	<line class="st2" x1="588.97" y1="476.04" x2="564.56" y2="450.73"/>
	<line class="st2" x1="589.18" y1="489.11" x2="615.8" y2="461.52"/>
	<line class="st2" x1="589" y1="502.17" x2="562.04" y2="474.23"/>
	<line class="st2" x1="589" y1="448.66" x2="575.61" y2="434.78"/>
	<line class="st2" x1="589" y1="516.55" x2="615.99" y2="488.58"/>
</g>
<polyline class="st2" points="718.16,342.78 718.16,388.99 718.16,412.43 "/>
<path class="st2" d="M534.65,393.15v-0.47v-2.6c0-37.92,33.55-68.64,74.97-68.64c20.68,0,39.43,7.67,53.01,20.1
	c4.27,3.91,19.86,18.75,21.47,40.72c0.24,3.19,0.12,5.85-0.02,7.67"/>
<polyline class="st2" points="534.65,406.15 534.65,419.94 534.65,452.23 "/>
<polyline class="st2" points="534.65,517.02 534.65,517.03 534.65,612 "/>
<path class="st2" d="M717.94,321.28v-69.73c0-37.62,33.06-68.19,74.06-68.63"/>
<line class="st2" x1="355.28" y1="511.15" x2="328.29" y2="511.15"/>
<line class="st2" x1="461.91" y1="511.15" x2="377.75" y2="511.15"/>
<path class="st2" d="M447.27,511.15"/>
<path class="st2" d="M318.37,330.59c0.95-1.55,17.16-27.02,47.87-27.23c28.67-0.2,44.95,21.8,46.43,23.87"/>
<circle class="st3" cx="400" cy="335.32" r="15.02"/>
<path class="st2" d="M521.98,405.52l7.37,1.51c0.51,0.1,1.01,0.15,1.51,0.15c1.36,0,2.66-0.37,3.79-1.03
	c1.79-1.04,3.14-2.81,3.59-4.99c0.66-3.25-0.87-6.43-3.59-8.01c-0.69-0.4-1.45-0.7-2.28-0.87l-7.55-1.55"/>
<g>
	<path class="st2" d="M318.24,518.1l0.13-187.5c-0.95-1.55-17.16-27.02-47.87-27.23c-28.67-0.2-44.95,21.8-46.43,23.87"/>
	<line class="st2" x1="318.24" y1="524.82" x2="318.24" y2="518.1"/>
	<g>
		<circle class="st4" cx="236.73" cy="335.32" r="15.02"/>
		<path class="st1" d="M236.73,351.33c-8.83,0-16.02-7.19-16.02-16.02s7.19-16.02,16.02-16.02s16.02,7.19,16.02,16.02
			S245.57,351.33,236.73,351.33z M236.73,321.3c-7.73,0-14.02,6.29-14.02,14.02s6.29,14.02,14.02,14.02
			c7.73,0,14.02-6.29,14.02-14.02S244.46,321.3,236.73,321.3z"/>
	</g>
</g>
<path class="st2" d="M457.25,448.54c-3.4-9.1-8.55-17.28-14.99-24.08c-12.15-12.8-28.92-20.72-47.47-20.72
	c-37.07,0-67.13,31.67-67.13,70.76v18.73c0.09,4.62,0.13,10.34,0.07,16.94c-0.04,4.58-0.12,7.36-2.08,9.98
	c-0.49,0.65-3.09,3.97-7.41,4.14c-4.07,0.16-7.4-2.57-8.89-5.26c-0.58-1.03-1-2.27-1.15-8.44c-0.09-3.83-0.01-7.02,0.07-9.26
	 M251.36,331.92c36.78,6.37,56.91,33.17,56.91,72.8v96.61v9.26h-0.07h-43.18V404.72c0-21.6-10.14-33.75-31.5-33.75
	c-21.35,0-31.5,12.15-31.5,33.75v17.81v12.34v14.85v21.08v14.9v3.18v18.68v0.09v2.86v0.08h-36.76h-6.48V404.72
	c-0.35-4-2.44-32.87,19.66-54.55c17.3-16.97,38.34-18.66,43.83-18.93h0.01 M158.78,510.59v0.56v17.76V612 M461.92,482.98v0.59v22.19
	v5.39V612"/>
<path class="st2" d="M447.84,490.61c2.42,5.93,1.46,11.02-3.19,14c-5.77,3.69-12.09,0.88-17.05-6.87l-11.5-17.98l5.19-3.32
	l7.07-4.53"/>
<path class="st2" d="M478.21,362.33c-0.01,0-0.01,0-0.01,0 M505.26,382.9c5.27,1.19,11.99,3.23,20.27,4.13
	c-0.24,1.23-0.47,2.47-0.71,3.7c-0.95,4.94-1.89,9.86-2.84,14.79c-0.13,0.7-0.27,1.4-0.4,2.1c-5.68-1.19-11.35-2.37-17.02-3.56"/>
<line class="st2" x1="478.1" y1="355.65" x2="477.17" y2="348.82"/>
<line class="st2" x1="490.8" y1="355.87" x2="489.82" y2="348.69"/>
<path class="st2" d="M462.87,375.93v-0.01c0.71-13.21,8.51-21.24,21.89-20.86c13.69,0.39,21.05,9.24,20.66,23.01l-0.91,27.38"/>
<path class="st2" d="M492.12,317.58c-0.8,3.68-2.71,10.12-7.62,16.66c-4.49,5.98-9.56,9.47-12.72,11.32"/>
<path class="st2" d="M531.23,501.97l1.77,7.53c0.55,2.5,1.1,5.01,1.65,7.52c0.01,0,0.02,0,0.03,0c1.22-0.39,3.18-1.01,5.57-1.75
	c4.99-1.53,9.96-3.12,14.94-4.66c4.19-1.29,5.52-1.76,7.41-2.99c4-2.6,5.78-6.34,4.73-10.81c-0.6-2.57-1.95-4.51-3.89-5.79
	c-3.07-2.03-7.59-2.43-13.05-1.16c0.77,1.85,1.55,3.7,2.32,5.55c-6.02,1.84-12.04,3.68-18.06,5.52"/>
<path class="st3" d="M486.13,421.44L486.13,421.44c-5.4,2.18-10.81,4.37-16.21,6.55c0.15,1.77,0.05,3.49-0.29,5.15
	c-1.31,6.45-6.12,10.39-12.38,15.4c-0.21,0.17-0.43,0.34-0.65,0.52c-5.03,4.03-9.72,6.6-12.98,8.17c-6.15,3.2-12.29,6.4-18.43,9.6
	c5.61,8.98,11.21,17.97,16.82,26.95c8.15-3.51,14.82-7.14,19.91-10.21c0.51-0.31,1.01-0.61,1.49-0.91
	c8.15-5.02,15.96-9.92,23.94-18.57c5.11-5.54,8.6-10.8,10.86-14.62C494.18,440.13,490.15,430.78,486.13,421.44z M485.1,438.83
	c-3.83,1.63-8.25-0.14-9.89-3.96l-3.1-7.77l14.02-5.66l2.92,7.5C490.69,432.77,488.92,437.19,485.1,438.83z"/>
<path class="st2" d="M498.98,451.33"/>
<path class="st2" d="M480.64,398.43c2.77,0.16,5.46,0.5,8.05,1.02c4.06,0.8,7.89,2.04,11.46,3.69c1.5,0.7,2.95,1.47,4.36,2.31
	c9.25,5.52,16.48,14.13,21.22,25.46c2.97,7.11,5.94,14.21,8.92,21.32c5.25,12.54,10.49,25.09,15.74,37.63
	c0.77,1.85,1.55,3.7,2.32,5.55c-6.02,1.84-12.04,3.68-18.06,5.52c-1.14,0.35-2.28,0.7-3.42,1.04c-3.3,1.01-6.6,2.02-9.9,3.03
	c-7.71-18.51-15.41-37.02-23.12-55.53"/>
<path class="st2" d="M480.86,398.98c-1.87-6.36-2.24-9.58-0.9-12.82c1.35-3.26,4.2-5.94,8.65-7.96l-7.31-17.39
	c-21.12,9.59-27.69,27.21-19.45,46.8c2.69,6.79,5.38,13.59,8.07,20.38c0.02,0.05,0.04,0.1,0.06,0.15c5.39-2.24,10.77-4.46,16.15-6.7
	c0.03-0.01,0.16-0.06,0.35-0.14c1.24-0.5,2.21-0.91,2.86-1.19C489.34,420.11,482.44,404.38,480.86,398.98z"/>
<line class="st2" x1="265.02" y1="510.59" x2="237.29" y2="510.59"/>
<path class="st5" d="M593.05,275.59c-4.6-8.94-13.59-14.78-23.54-15.26c-10.5-0.5-20.47,5.05-25.7,14.29
	c-0.66-1.12-7.98-13.01-22.26-14.07c-10.78-0.8-21.25,4.9-26.81,14.6"/>
<path class="st5" d="M679.04,258.54c-2.73-5.31-8.07-8.78-13.98-9.06c-6.24-0.3-12.16,3-15.27,8.49c-0.39-0.66-4.74-7.73-13.22-8.36
	c-6.41-0.48-12.62,2.91-15.93,8.68"/>
<path class="st5" d="M619.11,230.57c-1.71-3.33-5.06-5.51-8.77-5.69c-3.91-0.19-7.63,1.88-9.58,5.33c-0.25-0.42-2.97-4.85-8.29-5.24
	c-4.02-0.3-7.92,1.83-9.99,5.44"/>
<path class="st2" d="M202.92,475.26"/>
<line class="st2" x1="186.32" y1="451.48" x2="202.06" y2="467.23"/>
<line class="st2" x1="181.33" y1="469.47" x2="202.06" y2="487"/>
<line class="st2" x1="181.33" y1="492.07" x2="202.06" y2="509.6"/>
<line class="st2" x1="220.48" y1="457.5" x2="201.78" y2="476.2"/>
<line class="st2" x1="222.5" y1="480.45" x2="201.78" y2="497.98"/>
<path class="st2" d="M727.53,517.51H626.16h-10.17h-26.96h-26.96c-9.25-0.16-18.5-0.33-27.74-0.49"/>
<path class="st2" d="M181.33,471.18c0-16.99,7.35-27.65,20.59-27.65c13.24,0,20.59,10.66,20.59,27.65v39.41h-11.91h-17.35h-11.91
	V471.18z"/>
<g>
	<defs>
		<circle id="SVGID_1_" cx="718.16" cy="331.57" r="11.24"/>
	</defs>
	<clipPath id="SVGID_00000055697521512563622810000006915098868551038382_">
		<use xlink:href="#SVGID_1_"  style="overflow:visible;"/>
	</clipPath>
	<use xlink:href="#SVGID_1_"  style="overflow:visible;fill:none;stroke:#14153F;stroke-width:2;stroke-miterlimit:10;"/>
</g>
<g>
	<defs>
		<path id="SVGID_00000098212104440877364690000012151494188856344503_" d="M469.45,342.57"/>
	</defs>
	<defs>
		<path id="SVGID_00000044180118630389836890000015912801017960046518_" d="M470.77,324.73"/>
	</defs>
	<defs>
		<path id="SVGID_00000172408385669159962730000014552649498196108214_" d="M469.45,342.57c-2.19,1-4.75,1.23-7.24,0.46
			c-5.38-1.66-8.39-7.37-6.73-12.75c1.66-5.38,7.37-8.39,12.75-6.73c0.29,0.09,0.57,0.19,0.84,0.3"/>
	</defs>
	<clipPath id="SVGID_00000064322744424233839310000013394193286417679286_">
		<use xlink:href="#SVGID_00000098212104440877364690000012151494188856344503_"  style="overflow:visible;"/>
	</clipPath>
	
		<clipPath id="SVGID_00000165940934819027424640000001455088752013393599_" style="clip-path:url(#SVGID_00000064322744424233839310000013394193286417679286_);">
		<use xlink:href="#SVGID_00000044180118630389836890000015912801017960046518_"  style="overflow:visible;"/>
	</clipPath>
	
		<clipPath id="SVGID_00000090993123271773522620000009050235109067659181_" style="clip-path:url(#SVGID_00000165940934819027424640000001455088752013393599_);">
		<use xlink:href="#SVGID_00000172408385669159962730000014552649498196108214_"  style="overflow:visible;"/>
	</clipPath>
	
		<use xlink:href="#SVGID_00000098212104440877364690000012151494188856344503_"  style="overflow:visible;fill:none;stroke:#14153F;stroke-width:2;stroke-miterlimit:10;"/>
	
		<use xlink:href="#SVGID_00000044180118630389836890000015912801017960046518_"  style="overflow:visible;fill:none;stroke:#14153F;stroke-width:2;stroke-miterlimit:10;"/>
	
		<use xlink:href="#SVGID_00000172408385669159962730000014552649498196108214_"  style="overflow:visible;fill:none;stroke:#14153F;stroke-width:2;stroke-miterlimit:10;"/>
</g>
<path class="st2" d="M468.36,323.7c0.3-0.51,0.63-1,0.99-1.48c5.71-7.73,16.6-9.36,24.33-3.65c7.73,5.71,9.36,16.6,3.65,24.33
	c-5.71,7.73-16.6,9.36-24.33,3.65C465.75,341.19,463.86,331.28,468.36,323.7"/>
<circle class="st2" cx="366.51" cy="511.15" r="11.69"/>
</svg>
